<svg width="24" height="24" viewBox="0 0 24 24" fill="none" xmlns="http://www.w3.org/2000/svg">
<path d="M11.994 1C4.929 1.044 1 5.027 1 11.982C1 18.937 4.933 22.959 12.006 23C19.168 22.958 22.867 19.263 23 11.983C22.878 4.946 18.974 1.045 11.994 1ZM14.825 13H13.001V14.825C13.001 15.377 12.554 15.825 12.001 15.825C11.448 15.825 11.001 15.377 11.001 14.825V13H9.177C8.624 13 8.177 12.552 8.177 12C8.177 11.448 8.624 11 9.177 11H11.001V9.175C11.001 8.623 11.448 8.175 12.001 8.175C12.554 8.175 13.001 8.623 13.001 9.175V11H14.825C15.378 11 15.825 11.448 15.825 12C15.825 12.552 15.378 13 14.825 13Z" fill="white"/>
</svg>
