<svg width="24" height="24" viewBox="0 0 24 24" fill="none" xmlns="http://www.w3.org/2000/svg">
<path d="M13.2671 18.2688L16.8531 14.6828C17.1344 14.4014 17.2923 14.0198 17.2922 13.6219C17.2922 13.2241 17.134 12.8425 16.8526 12.5613C16.5712 12.28 16.1896 12.122 15.7918 12.1221C15.3939 12.1222 15.0124 12.2804 14.7311 12.5618L12.2921 15.0008V6.20776C12.2921 5.80994 12.1341 5.42841 11.8528 5.1471C11.5715 4.8658 11.1899 4.70776 10.7921 4.70776C10.3943 4.70776 10.0128 4.8658 9.73146 5.1471C9.45016 5.42841 9.29212 5.80994 9.29212 6.20776V15.0008L6.85312 12.5618C6.57186 12.2804 6.19033 12.1222 5.79247 12.1221C5.39461 12.122 5.01302 12.28 4.73162 12.5613C4.45023 12.8425 4.29209 13.2241 4.29199 13.6219C4.2919 14.0198 4.44986 14.4014 4.73112 14.6828L8.31712 18.2688C8.97416 18.924 9.86421 19.292 10.7921 19.292C11.72 19.292 12.6101 18.924 13.2671 18.2688Z" fill="white"/>
</svg>
