<svg width="24" height="24" viewBox="0 0 24 24" fill="none" xmlns="http://www.w3.org/2000/svg">
<path d="M8.31712 5.73095L4.73112 9.31695C4.44986 9.59834 4.2919 9.97995 4.29199 10.3778C4.29209 10.7757 4.45022 11.1572 4.73162 11.4385C5.01301 11.7197 5.39461 11.8777 5.79247 11.8776C6.19033 11.8775 6.57186 11.7193 6.85312 11.438L9.29212 8.99895V17.792C9.29212 18.1898 9.45015 18.5713 9.73146 18.8526C10.0128 19.1339 10.3943 19.292 10.7921 19.292C11.1899 19.292 11.5715 19.1339 11.8528 18.8526C12.1341 18.5713 12.2921 18.1898 12.2921 17.792V8.99895L14.7311 11.438C15.0124 11.7193 15.3939 11.8775 15.7918 11.8776C16.1896 11.8777 16.5712 11.7197 16.8526 11.4385C17.134 11.1572 17.2922 10.7757 17.2922 10.3778C17.2923 9.97995 17.1344 9.59834 16.8531 9.31695L13.2671 5.73095C12.6101 5.07572 11.72 4.70776 10.7921 4.70776C9.86421 4.70776 8.97415 5.07572 8.31712 5.73095Z" fill="white"/>
</svg>
