<svg width="24" height="24" viewBox="0 0 24 24" fill="none" xmlns="http://www.w3.org/2000/svg">
<path d="M4.52319 9.52488L8.10919 5.93888C8.39058 5.65762 8.77218 5.49966 9.17004 5.49976C9.5679 5.49985 9.94943 5.65799 10.2307 5.93938C10.5119 6.22078 10.6699 6.60238 10.6698 7.00024C10.6697 7.39809 10.5116 7.77962 10.2302 8.06088L7.79119 10.4999H16.5842C16.982 10.4999 17.3635 10.6579 17.6448 10.9392C17.9262 11.2205 18.0842 11.6021 18.0842 11.9999C18.0842 12.3977 17.9262 12.7792 17.6448 13.0605C17.3635 13.3418 16.982 13.4999 16.5842 13.4999H7.79119L10.2302 15.9389C10.5116 16.2201 10.6697 16.6017 10.6698 16.9995C10.6699 17.3974 10.5119 17.779 10.2307 18.0604C9.94943 18.3418 9.5679 18.4999 9.17004 18.5C8.77218 18.5001 8.39058 18.3421 8.10919 18.0609L4.52319 14.4749C3.86795 13.8178 3.5 12.9278 3.5 11.9999C3.5 11.072 3.86795 10.1819 4.52319 9.52488Z" fill="white"/>
</svg>
