<svg width="24" height="24" viewBox="0 0 24 24" fill="none" xmlns="http://www.w3.org/2000/svg">
<path d="M20.97 2.75702C20.88 2.39902 20.6 2.11902 20.242 2.02902C20.074 1.98702 16.075 0.999023 11.999 0.999023C7.92302 0.999023 3.92602 1.98802 3.75702 2.03002C3.39902 2.12002 3.11902 2.40002 3.02902 2.75802C2.98702 2.92602 1.99902 6.93602 1.99902 12.001C1.99902 17.066 2.98702 21.075 3.02902 21.244C3.11902 21.602 3.39902 21.882 3.75702 21.972C3.92502 22.014 7.92402 23.002 12 23.002C16.076 23.002 20.074 22.014 20.243 21.972C20.601 21.882 20.881 21.602 20.971 21.244C21.013 21.076 22.001 17.066 22.001 12.001C22.001 6.93602 21.013 2.92702 20.971 2.75802L20.97 2.75702ZM7.50002 4.50002C8.32802 4.50002 9.00002 5.17202 9.00002 6.00002C9.00002 6.82802 8.32802 7.50002 7.50002 7.50002C6.67202 7.50002 6.00002 6.82802 6.00002 6.00002C6.00002 5.17202 6.67202 4.50002 7.50002 4.50002ZM7.50002 19.5C6.67202 19.5 6.00002 18.828 6.00002 18C6.00002 17.172 6.67202 16.5 7.50002 16.5C8.32802 16.5 9.00002 17.172 9.00002 18C9.00002 18.828 8.32802 19.5 7.50002 19.5ZM9.10002 13.8C8.74402 14.067 8.25602 14.067 7.90002 13.8C7.33902 13.379 6.80002 12.917 6.29902 12.425C5.90502 12.039 5.89902 11.405 6.28502 11.011C6.67302 10.617 7.30502 10.611 7.70002 10.997C7.95602 11.248 8.22402 11.491 8.50002 11.723C9.12702 11.197 9.70802 10.615 10.233 9.98802C10.587 9.56402 11.217 9.50802 11.642 9.86302C12.065 10.217 12.121 10.848 11.767 11.272C10.98 12.212 10.083 13.062 9.10002 13.799V13.8ZM17 19H12C11.448 19 11 18.552 11 18C11 17.448 11.448 17 12 17H17C17.552 17 18 17.448 18 18C18 18.552 17.552 19 17 19ZM17 13H14C13.448 13 13 12.552 13 12C13 11.448 13.448 11 14 11H17C17.552 11 18 11.448 18 12C18 12.552 17.552 13 17 13ZM17 7.00002H12C11.448 7.00002 11 6.55202 11 6.00002C11 5.44802 11.448 5.00002 12 5.00002H17C17.552 5.00002 18 5.44802 18 6.00002C18 6.55202 17.552 7.00002 17 7.00002Z" fill="white"/>
</svg>
