<svg width="24" height="24" viewBox="0 0 24 24" fill="none" xmlns="http://www.w3.org/2000/svg">
<path d="M6.31005 16.076H6.83205V1.57202C6.69204 1.60202 6.55805 1.63102 6.43105 1.66002C4.78105 2.03602 3.53504 3.41602 3.25704 5.17502C3.00104 6.79302 2.69604 9.34202 2.69604 12.294C2.69604 14.228 2.82604 15.981 2.98304 17.391C3.87705 16.572 5.04305 16.077 6.30905 16.077L6.31005 16.076Z" fill="white"/>
<path d="M6.31001 18.0759C5.04801 18.0759 3.94901 18.9149 3.48401 20.1149C4.05801 21.5259 5.33301 22.5429 6.84801 22.7079C8.62601 22.9019 10.361 22.9999 12.001 22.9999C15.99 22.9999 19.38 22.4119 19.522 22.3869C19.914 22.3179 20.227 22.0249 20.321 21.6389C20.344 21.5439 20.667 20.2009 20.936 18.0759H6.31001Z" fill="white"/>
<path d="M12 1C16.0305 1 19.5261 2.18701 19.6729 2.23828C19.9959 2.35028 20.2423 2.6211 20.3223 2.9541C20.4224 3.37684 21.3037 7.20058 21.3037 12.293C21.3037 13.658 21.2395 14.9332 21.1445 16.0762H8.83203V1.22363C9.79601 1.09264 10.875 1 12 1ZM16.9102 4.31543C16.1471 4.31543 15.4896 4.89197 15.0605 5.8252C14.6315 4.89197 13.974 4.31543 13.2109 4.31543C11.8554 4.3155 10.8331 6.13305 10.833 8.54297C10.833 10.953 11.8553 12.7704 13.2109 12.7705C13.9739 12.7705 14.6315 12.1948 15.0605 11.2617C15.4896 12.1948 16.1472 12.7705 16.9102 12.7705C18.2658 12.7705 19.2881 10.953 19.2881 8.54297C19.288 6.13304 18.2657 4.31549 16.9102 4.31543ZM13.2109 5.37207C13.7626 5.37207 14.5322 6.57867 14.5322 8.54297C14.5322 10.5074 13.7626 11.7139 13.2109 11.7139C12.8449 11.7138 12.3828 11.1818 12.1133 10.25C12.2083 10.2852 12.3107 10.3046 12.418 10.3047C12.9045 10.3047 13.2988 9.91035 13.2988 9.42383C13.2988 8.93732 12.9045 8.54297 12.418 8.54297C12.2208 8.54305 12.0384 8.60828 11.8916 8.71777C11.8902 8.66035 11.8896 8.6018 11.8896 8.54297C11.8897 6.57876 12.6593 5.37218 13.2109 5.37207ZM16.9102 5.37207C17.4618 5.37216 18.2314 6.57874 18.2314 8.54297C18.2314 10.5073 17.4618 11.7138 16.9102 11.7139C16.5297 11.7139 16.0461 11.1404 15.7822 10.1406C15.9263 10.2438 16.103 10.3047 16.2939 10.3047C16.7803 10.3045 17.1738 9.91022 17.1738 9.42383C17.1738 8.93744 16.7803 8.54317 16.2939 8.54297C16.0104 8.54297 15.7577 8.6766 15.5967 8.88477C15.5914 8.77358 15.5889 8.65942 15.5889 8.54297C15.5889 6.57867 16.3585 5.37207 16.9102 5.37207Z" fill="white"/>
</svg>
