<svg width="24" height="24" viewBox="0 0 24 24" fill="none" xmlns="http://www.w3.org/2000/svg">
<path d="M6.428 15.028C5.352 14.945 4.414 14.783 3.713 14.583C2.266 14.17 1.207 12.867 1.078 11.338C1.031 10.78 1.003 10.3 1 9.50399C1.003 8.69999 1.031 8.21999 1.078 7.66199C1.207 6.13399 2.266 4.82999 3.713 4.41699C4.415 4.21699 5.352 4.05399 6.428 3.97199C6.566 4.48099 7 6.32799 7 9.49999C7 12.672 6.565 14.522 6.428 15.028ZM17.874 1.63599C17.709 1.20299 17.236 0.926987 16.777 1.00799C16.528 1.04899 16.305 1.18099 16.151 1.37899C15.693 1.87899 12.831 4.32799 10.178 4.03499C9.597 3.97099 9.028 3.93799 8.474 3.92399C8.687 4.86699 9 6.71299 9 9.50099C9 12.289 8.687 14.135 8.474 15.078C9.028 15.064 9.597 15.031 10.178 14.967C12.826 14.672 15.693 17.123 16.151 17.623C16.337 17.863 16.634 18.008 16.939 18.007C17.343 18.013 17.73 17.744 17.875 17.365C17.988 17.076 18.984 14.405 19.001 9.49699C18.984 4.59599 17.987 1.92499 17.874 1.63599ZM10.639 17.018C10.293 17.042 6.983 17.028 6.983 17.028C5.616 16.952 4.407 16.798 3.534 16.592C4.084 18.296 4.766 19.952 5.471 21.246C6.053 22.311 7.16 22.999 8.294 22.999C10.216 23.029 11.568 21.07 11.176 19.196C11.044 18.508 10.862 17.775 10.639 17.018ZM20.834 6.17499C20.931 7.15199 20.996 8.25199 21 9.48899C20.996 10.735 20.93 11.843 20.833 12.824C22.265 12.426 23 11.32 23 9.49899C23 7.67799 22.266 6.57199 20.834 6.17399V6.17499Z" fill="white"/>
</svg>
