<svg width="24" height="24" viewBox="0 0 24 24" fill="none" xmlns="http://www.w3.org/2000/svg">
<path d="M7 15C4.309 15 3 13.691 3 11C3 8.309 4.309 7 7 7C9.691 7 11 8.309 11 11C11 13.691 9.691 15 7 15ZM12 23H2C1.448 23 1 22.553 1 22C1 17.851 2.851 16 7 16C11.149 16 13 17.851 13 22C13 22.553 12.552 23 12 23ZM22.15 2.501C22.052 2.201 21.818 1.966 21.521 1.865C21.417 1.83 18.908 1 14 1C9.092 1 6.583 1.83 6.479 1.865C6.181 1.966 5.948 2.201 5.85 2.501C5.828 2.568 5.496 3.601 5.253 5.201C5.795 5.083 6.366 5 7 5C10.25 5 12.304 6.6 12.844 9.431L14 10.587L16.529 8.057C16.4 8.07 16.27 8.075 16.141 8.093C15.6 8.17 15.089 7.79 15.01 7.243C14.932 6.696 15.313 6.19 15.86 6.112C16.914 5.962 17.985 5.962 19.038 6.112C19.478 6.174 19.825 6.52 19.887 6.961C20.038 8.017 20.038 9.086 19.887 10.142C19.816 10.641 19.388 11 18.899 11C18.296 11.006 17.817 10.455 17.908 9.858C17.926 9.729 17.931 9.6 17.944 9.471L14.708 12.708C14.336 13.095 13.666 13.095 13.294 12.708L12.895 12.309C12.72 13.424 12.306 14.347 11.696 15.079C12.139 15.334 12.54 15.633 12.895 15.977C13.256 15.987 13.608 16 14 16C18.908 16 21.417 15.17 21.521 15.135C21.819 15.034 22.052 14.799 22.15 14.499C22.185 14.394 23 11.871 23 8.5C23 5.129 22.185 2.606 22.15 2.501Z" fill="white"/>
</svg>
