<svg width="24" height="24" viewBox="0 0 24 24" fill="none" xmlns="http://www.w3.org/2000/svg">
<path d="M12 1C4.29 1 1 4.29 1 12C1 19.71 4.29 23 12 23C19.71 23 23 19.71 23 12C23 4.29 19.71 1 12 1ZM15.707 14.293C16.098 14.684 16.098 15.316 15.707 15.707C15.316 16.098 14.684 16.098 14.293 15.707L12 13.414L9.707 15.707C9.316 16.098 8.684 16.098 8.293 15.707C7.902 15.316 7.902 14.684 8.293 14.293L10.586 12L8.293 9.707C7.902 9.316 7.902 8.684 8.293 8.293C8.684 7.902 9.316 7.902 9.707 8.293L12 10.586L14.293 8.293C14.684 7.902 15.316 7.902 15.707 8.293C16.098 8.684 16.098 9.316 15.707 9.707L13.414 12L15.707 14.293Z" fill="white"/>
</svg>
