<svg width="24" height="24" viewBox="0 0 24 24" fill="none" xmlns="http://www.w3.org/2000/svg">
<path d="M19.863 4.533C19.755 4.259 19.531 4.046 19.252 3.952C19.196 3.933 17.991 3.534 15.94 3.259C15.395 1.74 14.098 1 12 1C9.902 1 8.604 1.741 8.06 3.259C6.009 3.534 4.804 3.934 4.748 3.952C4.469 4.046 4.245 4.259 4.136 4.533C4.09 4.65 3 7.472 3 13C3 18.528 4.09 21.35 4.136 21.467C4.24 21.732 4.452 21.939 4.719 22.037C4.825 22.077 7.374 23 12 23C16.626 23 19.175 22.077 19.28 22.037C19.547 21.938 19.759 21.731 19.863 21.467C19.91 21.35 21 18.528 21 13C21 7.472 19.91 4.65 19.863 4.533ZM11.767 15.273C10.977 16.215 10.079 17.066 9.1 17.799C8.745 18.066 8.256 18.066 7.9 17.799C7.341 17.38 6.803 16.918 6.3 16.426C5.905 16.039 5.899 15.406 6.285 15.012C6.672 14.616 7.305 14.611 7.699 14.996C7.956 15.248 8.224 15.491 8.5 15.723C9.125 15.198 9.707 14.617 10.234 13.988C10.588 13.565 11.219 13.509 11.643 13.864C12.066 14.219 12.122 14.849 11.767 15.273ZM11.767 10.273C10.977 11.215 10.079 12.066 9.1 12.799C8.745 13.066 8.256 13.066 7.9 12.799C7.341 12.38 6.803 11.918 6.3 11.426C5.905 11.039 5.899 10.406 6.285 10.012C6.672 9.617 7.305 9.612 7.699 9.996C7.956 10.248 8.224 10.491 8.5 10.723C9.125 10.198 9.707 9.617 10.234 8.988C10.588 8.565 11.219 8.509 11.643 8.864C12.066 9.219 12.122 9.849 11.767 10.273ZM17 17H14C13.447 17 13 16.553 13 16C13 15.447 13.447 15 14 15H17C17.553 15 18 15.447 18 16C18 16.553 17.553 17 17 17ZM17 12H14C13.447 12 13 11.553 13 11C13 10.447 13.447 10 14 10H17C17.553 10 18 10.447 18 11C18 11.553 17.553 12 17 12Z" fill="white"/>
</svg>
