<svg width="24" height="24" viewBox="0 0 24 24" fill="none" xmlns="http://www.w3.org/2000/svg">
<path d="M16.152 17.739C16.472 17.636 16.717 17.376 16.803 17.051C16.837 16.924 17.624 13.889 17.624 9.84498C17.624 9.16698 17.601 8.47998 17.557 7.78998C14.504 7.41598 12.416 6.66798 12.327 6.63698C12.034 6.52998 11.808 6.29098 11.718 5.99298C11.694 5.91198 11.135 4.02398 10.798 1.02798C10.457 1.00998 10.121 1.00098 9.79196 1.00098C6.42096 1.00098 3.55196 1.91398 3.43096 1.95298C3.11096 2.05598 2.86496 2.31498 2.77996 2.64098C2.74596 2.76798 1.95996 5.80298 1.95996 9.84698C1.95996 13.926 2.74696 16.93 2.78096 17.055C2.86696 17.379 3.11196 17.637 3.43096 17.74C3.55096 17.779 6.41296 18.692 9.79296 18.692C13.173 18.692 16.033 17.779 16.153 17.74L16.152 17.739Z" fill="white"/>
<path d="M17.116 5.73798L12.838 1.46498C13.051 3.08598 13.32 4.30198 13.478 4.93498C14.139 5.13598 15.442 5.48998 17.117 5.73798H17.116Z" fill="white"/>
<path d="M21.924 7.28398C21.859 6.45798 21.14 5.84198 20.311 5.90698C19.485 5.97198 18.869 6.69398 18.934 7.51998C19.005 8.42098 19.041 9.31798 19.041 10.187C19.041 13.35 18.63 17.318 18.411 19.215C16.583 19.492 12.862 20 10.2 20C9.37696 20 8.51996 19.95 7.65296 19.852C6.83796 19.758 6.08696 20.351 5.99396 21.174C5.90096 21.997 6.49296 22.74 7.31596 22.833C8.29496 22.943 9.26496 23 10.2 23C14.094 23 19.776 22.039 20.015 21.998C20.663 21.888 21.164 21.368 21.25 20.716C21.282 20.471 22.041 14.682 22.041 10.187C22.041 9.23998 22.002 8.26298 21.924 7.28398Z" fill="white"/>
</svg>
