<svg xmlns="http://www.w3.org/2000/svg" viewBox="0 0 24 24" fill="currentColor">
  <path d="M12 2C13.1 2 14 2.9 14 4C14 5.1 13.1 6 12 6C10.9 6 10 5.1 10 4C10 2.9 10.9 2 12 2ZM21 9V7C21 5.9 20.1 5 19 5H17.8C17.9 4.6 18 4.2 18 3.8C18 2.8 17.2 2 16.2 2C15.5 2 14.9 2.4 14.6 3L12 8L9.4 3C9.1 2.4 8.5 2 7.8 2C6.8 2 6 2.8 6 3.8C6 4.2 6.1 4.6 6.2 5H5C3.9 5 3 5.9 3 7V9C3 10.1 3.9 11 5 11H6V20C6 21.1 6.9 22 8 22H16C17.1 22 18 21.1 18 20V11H19C20.1 11 21 10.1 21 9ZM16 20H8V11H16V20ZM19 9H5V7H19V9Z"/>
</svg>
