<svg width="240" height="50" viewBox="0 0 240 50" fill="none" xmlns="http://www.w3.org/2000/svg">
<path fill-rule="evenodd" clip-rule="evenodd" d="M50 25C50 38.8071 38.8071 50 25 50C11.1929 50 0 38.8071 0 25C0 11.1929 11.1929 0 25 0C38.8071 0 50 11.1929 50 25ZM40.7105 33.3947C48.5929 16.7105 31.2632 2.52888 14.8421 11.6842C25 6.02081 39.7997 15.1579 34.4211 28.1316C29.6316 39.6842 9.31579 33.6053 17.3158 19.2105C11.0789 26.3684 15.5528 38.5 28.1053 37.9737C14.4421 40.0158 10.7632 28.9474 11.4737 24.3947C8.3523 44.3947 33.5627 48.5242 40.7105 33.3947ZM18.7632 24.9211C14.8421 19.8421 24.0263 11.8947 28.7632 16.3421C34.4609 21.6916 23.4873 31.0403 18.7632 24.9211Z" fill="white"/>
<path d="M70 42.2734V7.70312H84.2591C87.58 7.70312 90.224 8.52344 92.1914 10.1641C94.1587 11.7891 95.1423 13.9609 95.1423 16.6797C95.1423 20.1484 93.6786 22.6016 90.7513 24.0391C92.4353 24.4922 93.8124 25.4609 94.8827 26.9453C95.9686 28.4297 96.5116 30.2266 96.5116 32.3359C96.5116 35.3516 95.4571 37.7656 93.3481 39.5781C91.2392 41.375 88.359 42.2734 84.7077 42.2734H70ZM76.8699 36.4141H84.6133C85.951 36.4141 87.0921 35.9844 88.0364 35.125C88.9807 34.2656 89.4529 33.1406 89.4529 31.75C89.4529 30.3594 88.9807 29.2734 88.0364 28.4922C87.1078 27.6953 85.9668 27.2969 84.6133 27.2969H76.8699V36.4141ZM76.8699 21.625H84.2591C85.4238 21.625 86.3838 21.2656 87.1393 20.5469C87.8947 19.8125 88.2725 18.8125 88.2725 17.5469C88.2725 16.3125 87.8947 15.3438 87.1393 14.6406C86.3838 13.9219 85.4238 13.5625 84.2591 13.5625H76.8699V21.625Z" fill="white"/>
<path d="M118.42 43C115.823 43 113.391 42.5703 111.125 41.7109C108.874 40.8359 106.931 39.625 105.294 38.0781C103.657 36.5312 102.366 34.6328 101.422 32.3828C100.478 30.1172 100.006 27.6562 100.006 25C100.006 21.4219 100.816 18.2578 102.437 15.5078C104.058 12.7578 106.254 10.6562 109.024 9.20312C111.809 7.73438 114.941 7 118.42 7C121.835 7 124.928 7.73438 127.698 9.20312C130.483 10.6562 132.695 12.7656 134.331 15.5312C135.984 18.2812 136.81 21.4375 136.81 25C136.81 28.5469 135.984 31.7031 134.331 34.4688C132.695 37.2188 130.483 39.3281 127.698 40.7969C124.928 42.2656 121.835 43 118.42 43ZM107.112 25C107.112 28.4062 108.174 31.2109 110.299 33.4141C112.423 35.6016 115.13 36.6953 118.42 36.6953C121.662 36.6953 124.353 35.5938 126.494 33.3906C128.634 31.1875 129.704 28.3906 129.704 25C129.704 21.5625 128.634 18.75 126.494 16.5625C124.369 14.375 121.678 13.2812 118.42 13.2812C115.115 13.2812 112.4 14.375 110.275 16.5625C108.166 18.7344 107.112 21.5469 107.112 25Z" fill="white"/>
<path d="M159.12 43C156.523 43 154.091 42.5703 151.825 41.7109C149.574 40.8359 147.63 39.625 145.994 38.0781C144.357 36.5312 143.066 34.6328 142.122 32.3828C141.178 30.1172 140.705 27.6562 140.705 25C140.705 21.4219 141.516 18.2578 143.137 15.5078C144.758 12.7578 146.954 10.6562 149.724 9.20312C152.509 7.73438 155.641 7 159.12 7C162.535 7 165.627 7.73438 168.397 9.20312C171.183 10.6562 173.394 12.7656 175.031 15.5312C176.684 18.2812 177.51 21.4375 177.51 25C177.51 28.5469 176.684 31.7031 175.031 34.4688C173.394 37.2188 171.183 39.3281 168.397 40.7969C165.627 42.2656 162.535 43 159.12 43ZM147.811 25C147.811 28.4062 148.874 31.2109 150.998 33.4141C153.123 35.6016 155.83 36.6953 159.12 36.6953C162.362 36.6953 165.053 35.5938 167.193 33.3906C169.334 31.1875 170.404 28.3906 170.404 25C170.404 21.5625 169.334 18.75 167.193 16.5625C165.069 14.375 162.377 13.2812 159.12 13.2812C155.814 13.2812 153.1 14.375 150.975 16.5625C148.866 18.7344 147.811 21.5469 147.811 25Z" fill="white"/>
<path d="M182.94 42.2734V7.70312H189.81V22.3047L203.691 7.70312H212.284L198.993 21.6719L213.111 42.2734H205.178L194.154 26.8281L189.81 31.375V42.2734H182.94Z" fill="white"/>
<path d="M216.982 42.2734V7.70312H240V14.0078H223.852V21.5781H237.143V27.8828H223.852V35.9922H240V42.2734H216.982Z" fill="white"/>
</svg>
