<svg width="24" height="24" viewBox="0 0 24 24" fill="none" xmlns="http://www.w3.org/2000/svg">
<path d="M22.248 6.62997C21.921 5.49497 20.977 4.64397 19.844 4.46297C14.785 3.65297 9.21402 3.65297 4.15602 4.46297C3.02302 4.64397 2.07902 5.49497 1.75202 6.62997C0.755022 10.093 0.755022 13.908 1.75202 17.371C2.07902 18.506 3.02302 19.357 4.15602 19.538C6.68502 19.943 9.34302 20.145 12 20.145C14.657 20.145 17.315 19.943 19.844 19.538C20.977 19.357 21.921 18.506 22.248 17.371C23.245 13.908 23.245 10.093 22.248 6.62997ZM6.06402 16.033C5.51202 16.033 5.06402 15.585 5.06402 15.033C5.06402 14.481 5.51202 14.033 6.06402 14.033C6.61602 14.033 7.06402 14.481 7.06402 15.033C7.06402 15.585 6.61602 16.033 6.06402 16.033ZM6.06402 9.96897C5.51202 9.96897 5.06402 9.52097 5.06402 8.96897C5.06402 8.41697 5.51202 7.96897 6.06402 7.96897C6.61602 7.96897 7.06402 8.41697 7.06402 8.96897C7.06402 9.52097 6.61602 9.96897 6.06402 9.96897ZM15.084 13.009C14.627 13.928 13.929 14.626 13.01 15.083C12.694 15.24 12.347 15.319 12 15.319C11.653 15.319 11.307 15.24 10.99 15.083C10.071 14.626 9.37302 13.928 8.91602 13.009C8.60202 12.377 8.60202 11.622 8.91602 10.989C9.37302 10.07 10.071 9.37197 10.99 8.91497C11.623 8.60097 12.377 8.60097 13.01 8.91497C13.929 9.37197 14.627 10.07 15.084 10.989C15.398 11.621 15.398 12.376 15.084 13.009ZM17.937 16.032C17.385 16.032 16.937 15.584 16.937 15.032C16.937 14.48 17.385 14.032 17.937 14.032C18.489 14.032 18.937 14.48 18.937 15.032C18.937 15.584 18.489 16.032 17.937 16.032ZM17.937 9.96797C17.385 9.96797 16.937 9.51997 16.937 8.96797C16.937 8.41597 17.385 7.96797 17.937 7.96797C18.489 7.96797 18.937 8.41597 18.937 8.96797C18.937 9.51997 18.489 9.96797 17.937 9.96797Z" fill="white"/>
</svg>
