<svg width="24" height="24" viewBox="0 0 24 24" fill="none" xmlns="http://www.w3.org/2000/svg">
<path d="M22.987 5.452C22.959 5.275 22.675 3.685 21.523 2.524C20.366 1.392 18.77 1.112 18.592 1.084C18.355 1.045 18.113 1.095 17.91 1.221C17.839 1.265 16.796 1.918 14.737 3.659C15.796 4.033 17.165 4.682 18.275 5.768C19.389 6.858 20.055 8.199 20.437 9.239C22.157 7.229 22.804 6.211 22.847 6.141C22.975 5.936 23.025 5.691 22.987 5.452Z" fill="white"/>
<path d="M12.95 5.223C11.877 6.191 10.628 7.367 9.19802 8.787C3.13502 14.807 1.54502 17.214 1.48002 17.313C1.38902 17.453 1.33402 17.614 1.32102 17.78L1.00202 21.851C0.98002 22.143 1.08502 22.429 1.29202 22.636C1.48002 22.824 1.73502 22.929 2.00002 22.929C2.02502 22.929 2.05102 22.929 2.07702 22.926L6.17802 22.61C6.34302 22.597 6.50202 22.544 6.64102 22.455C6.74102 22.391 9.16402 20.812 15.226 14.793C16.688 13.341 17.894 12.077 18.881 10.996C18.73 10.347 18.203 8.495 16.876 7.198C15.53 5.881 13.594 5.365 12.95 5.223Z" fill="white"/>
</svg>
