<svg width="24" height="24" viewBox="0 0 24 24" fill="none" xmlns="http://www.w3.org/2000/svg">
<g clip-path="url(#clip0_113_1662)">
<path d="M9.5 4.5C9.5 3.119 10.619 2 12 2C13.381 2 14.5 3.119 14.5 4.5C14.5 5.881 13.381 7 12 7C10.619 7 9.5 5.881 9.5 4.5ZM17 12V15C17 16.474 16.19 17.75 15 18.444V23C15 23.552 14.552 24 14 24C13.448 24 13 23.552 13 23V19H11V23C11 23.552 10.552 24 10 24C9.448 24 9 23.552 9 23V18.444C7.81 17.75 7 16.474 7 15V12C7 9.794 8.794 8 11 8H13C15.206 8 17 9.794 17 12ZM5 5C6.381 5 7.5 3.881 7.5 2.5C7.5 1.119 6.381 0 5 0C3.619 0 2.5 1.119 2.5 2.5C2.5 3.881 3.619 5 5 5ZM19 5C20.381 5 21.5 3.881 21.5 2.5C21.5 1.119 20.381 0 19 0C17.619 0 16.5 1.119 16.5 2.5C16.5 3.881 17.619 5 19 5ZM20 6H18C17.256 6 16.568 6.217 15.971 6.572C15.942 6.628 15.912 6.684 15.881 6.739C17.739 7.76 19.001 9.735 19.001 12V15C19.001 15.69 18.873 16.365 18.644 17H20.001V21C20.001 21.552 20.449 22 21.001 22C21.553 22 22.001 21.552 22.001 21V16.444C23.191 15.75 24.001 14.474 24.001 13V10C24.001 7.794 22.206 6 20 6ZM5 15V12C5 9.735 6.262 7.76 8.12 6.739C8.088 6.684 8.059 6.629 8.03 6.572C7.433 6.217 6.744 6 6.001 6H4.001C1.794 6 0 7.794 0 10V13C0 14.474 0.81 15.75 2 16.444V21C2 21.552 2.448 22 3 22C3.552 22 4 21.552 4 21V17H5.357C5.128 16.365 5 15.69 5 15Z" fill="white"/>
</g>
<defs>
<clipPath id="clip0_113_1662">
<rect width="24" height="24" fill="white"/>
</clipPath>
</defs>
</svg>
