<svg width="24" height="24" viewBox="0 0 24 24" fill="none" xmlns="http://www.w3.org/2000/svg">
<path d="M22.8871 11.4301C22.7551 11.1081 21.4601 8.22012 16.8631 6.05712C16.1131 5.70412 15.2201 6.02712 14.8671 6.77612C14.5141 7.52612 14.8361 8.42012 15.5861 8.77212C16.7791 9.33312 17.6781 9.93912 18.3481 10.5001H9.1731C8.3441 10.5001 7.6731 11.1711 7.6731 12.0001C7.6731 12.8291 8.3441 13.5001 9.1731 13.5001H18.3471C17.6771 14.0611 16.7781 14.6671 15.5851 15.2281C14.8351 15.5811 14.5141 16.4741 14.8661 17.2241C15.1221 17.7671 15.6611 18.0861 16.2241 18.0861C16.4381 18.0861 16.6551 18.0401 16.8621 17.9431C21.4051 15.8061 22.7411 12.9121 22.8791 12.5891C23.0361 12.2191 23.0401 11.8011 22.8871 11.4301Z" fill="white"/>
<path d="M12.338 16.1769C11.512 16.0919 10.783 16.7089 10.708 17.5339C10.645 18.2229 10.583 18.8559 10.535 19.3369C9.82798 19.5749 8.70298 19.8729 7.50498 19.8729C6.32898 19.8729 5.17798 19.5649 4.45498 19.3229C4.29198 17.9009 4.00098 14.9479 4.00098 12.0009C4.00098 9.05393 4.29298 6.09693 4.45598 4.67393C5.17098 4.43393 6.31298 4.12893 7.50598 4.12893C8.70898 4.12893 9.83098 4.42593 10.536 4.66393C10.585 5.14393 10.647 5.77693 10.71 6.46793C10.785 7.29293 11.505 7.89893 12.341 7.82393C13.166 7.74793 13.773 7.01793 13.697 6.19293C13.558 4.67993 13.425 3.43793 13.425 3.43793C13.369 2.91893 13.048 2.46693 12.577 2.24293C12.481 2.19693 10.198 1.12793 7.50598 1.12793C4.86198 1.12793 2.54298 2.19193 2.44498 2.23693C1.98298 2.45193 1.66098 2.88693 1.59098 3.39293C1.56698 3.56793 1.00098 7.72293 1.00098 11.9999C1.00098 16.2769 1.56598 20.4319 1.59098 20.6059C1.66098 21.1149 1.98698 21.5529 2.45498 21.7659C2.55398 21.8109 4.90998 22.8709 7.50598 22.8709C10.192 22.8709 12.48 21.8019 12.576 21.7559C13.048 21.5319 13.37 21.0789 13.426 20.5589C13.426 20.5589 13.558 19.3149 13.697 17.8059C13.773 16.9809 13.165 16.2509 12.34 16.1759L12.338 16.1769Z" fill="white"/>
</svg>
