<svg width="24" height="24" viewBox="0 0 24 24" fill="none" xmlns="http://www.w3.org/2000/svg">
<g clip-path="url(#clip0_120_2546)">
<path d="M18.4156 22.7096L11.7627 18.5465L5.10976 22.7096C4.86808 22.8627 4.55631 22.8511 4.32358 22.6821C4.0915 22.5139 3.98505 22.2214 4.05508 21.9433L5.95844 14.3291L0.0141237 9.28915C-0.205626 9.10511 -0.291454 8.80572 -0.202861 8.53315C-0.114267 8.25986 0.131546 8.06829 0.417202 8.04837L8.17567 7.50658L11.1104 0.227459C11.326 -0.30401 12.1994 -0.30401 12.415 0.227459L15.3497 7.50658L23.1082 8.04837C23.3938 8.06829 23.6396 8.25986 23.7282 8.53315C23.8168 8.80572 23.731 9.10511 23.5112 9.28915L17.5669 14.3291L19.4702 21.9434C19.5403 22.2215 19.4339 22.514 19.2017 22.6822C18.9642 22.8547 18.6534 22.8586 18.4156 22.7096Z" fill="white"/>
</g>
<defs>
<clipPath id="clip0_120_2546">
<rect width="24" height="24" fill="white"/>
</clipPath>
</defs>
</svg>
