<svg width="24" height="24" viewBox="0 0 24 24" fill="none" xmlns="http://www.w3.org/2000/svg">
<path d="M22.9713 8.08125L21.8963 4.32383C21.3368 2.36675 19.5226 1 17.4864 1H16.5857V4.66667C16.5802 5.86567 14.7559 5.86475 14.7513 4.66667V1H9.24806V4.66667C9.24256 5.86567 7.41915 5.86475 7.41364 4.66667V1H6.51203C4.47583 1 2.66251 2.36675 2.1021 4.32383L1.02897 8.08125C0.881295 9.05842 1.31697 10.0411 1.9104 10.7332V19.3333C1.9104 21.3555 3.55587 23 5.57923 23H11.0825C13.1058 23 14.7513 21.3555 14.7513 19.3333V11.4903C15.098 11.2878 15.4062 11.0338 15.6685 10.7332C16.3417 11.5032 17.3186 12 18.4201 12H19.3373C19.6556 12 19.9592 11.9468 20.2545 11.8698V22.0833C20.26 23.2823 22.0844 23.2814 22.089 22.0833V10.7332C22.6833 10.042 23.1181 9.05933 22.9713 8.08125ZM12.9169 16.5833H3.74482V11.8698C4.04016 11.9468 4.34375 12 4.66202 12H5.57923C6.67988 12 7.65762 11.5032 8.33085 10.7332C9.00408 11.5032 9.98182 12 11.0825 12H12.9169V16.5833Z" fill="white"/>
</svg>
