<svg width="24" height="24" viewBox="0 0 24 24" fill="none" xmlns="http://www.w3.org/2000/svg">
<path d="M21.571 16.064C21.691 14.856 21.776 13.482 21.776 12C21.776 6.843 20.775 3.05 20.732 2.891C20.644 2.563 20.395 2.302 20.072 2.198C19.92 2.149 16.291 1 12.001 1C7.71098 1 4.08198 2.149 3.92998 2.198C3.60498 2.302 3.35598 2.564 3.26798 2.894C3.22598 3.055 2.22498 6.886 2.22498 12C2.22498 13.486 2.30798 14.859 2.42798 16.064H21.571Z" fill="white"/>
<path d="M13 18.064V18.841C13 19.393 12.553 19.841 12 19.841C11.447 19.841 11 19.393 11 18.841V18.064H2.67398C2.94598 19.891 3.24498 21.023 3.26798 21.109C3.35598 21.437 3.60498 21.698 3.92798 21.802C4.07998 21.851 7.70898 23 11.999 23C16.289 23 19.917 21.851 20.069 21.802C20.394 21.698 20.643 21.436 20.731 21.106C20.753 21.02 21.05 19.884 21.321 18.064H13Z" fill="white"/>
</svg>
