<svg width="24" height="24" viewBox="0 0 24 24" fill="none" xmlns="http://www.w3.org/2000/svg">
<g clip-path="url(#clip0_115_1029)">
<path d="M12 5C8.138 5 5 8.138 5 12C5 15.862 8.138 19 12 19C15.862 19 19 15.862 19 12C19 8.138 15.862 5 12 5ZM15.945 11.255L14.289 12.606L14.976 14.689C15.068 14.971 14.976 15.284 14.739 15.46C14.502 15.643 14.182 15.651 13.93 15.491L12.007 14.24L10.115 15.507C10.001 15.583 9.863 15.621 9.726 15.621V15.613C9.581 15.613 9.428 15.567 9.306 15.476C9.069 15.301 8.97 14.988 9.062 14.705L9.718 12.599L8.055 11.248C7.834 11.057 7.75 10.752 7.849 10.477C7.948 10.202 8.215 10.019 8.505 10.019H10.603L11.343 8.027C11.442 7.752 11.709 7.569 11.999 7.569C12.289 7.569 12.556 7.752 12.655 8.027L13.395 10.019H15.493C15.783 10.019 16.05 10.202 16.149 10.477C16.248 10.752 16.164 11.065 15.943 11.255H15.945ZM12 0C5.383 0 0 5.383 0 12C0 18.617 5.383 24 12 24C18.617 24 24 18.617 24 12C24 5.383 18.617 0 12 0ZM12 21C7.038 21 3 16.963 3 12C3 7.037 7.038 3 12 3C16.962 3 21 7.037 21 12C21 16.963 16.962 21 12 21Z" fill="white"/>
</g>
<defs>
<clipPath id="clip0_115_1029">
<rect width="24" height="24" fill="white"/>
</clipPath>
</defs>
</svg>
